<?xml version="1.0" encoding="UTF-8" standalone="no"?>
<!-- Generator: Adobe Illustrator 18.0.0, SVG Export Plug-In . SVG Version: 6.00 Build 0)  -->

<svg
   xmlns:dc="http://purl.org/dc/elements/1.1/"
   xmlns:cc="http://creativecommons.org/ns#"
   xmlns:rdf="http://www.w3.org/1999/02/22-rdf-syntax-ns#"
   xmlns:svg="http://www.w3.org/2000/svg"
   xmlns="http://www.w3.org/2000/svg"
   xmlns:sodipodi="http://sodipodi.sourceforge.net/DTD/sodipodi-0.dtd"
   xmlns:inkscape="http://www.inkscape.org/namespaces/inkscape"
   version="1.1"
   id="Capa_1"
   x="0px"
   y="0px"
   viewBox="0 0 168.493 168.493"
   style="enable-background:new 0 0 168.493 168.493;"
   xml:space="preserve"
   inkscape:version="0.91 r13725"
   sodipodi:docname="ser.svg"
   inkscape:export-filename="/home/64960366087/Downloads/ser.svg.png"
   inkscape:export-xdpi="90"
   inkscape:export-ydpi="90"><metadata
     id="metadata49"><rdf:RDF><cc:Work
         rdf:about=""><dc:format>image/svg+xml</dc:format><dc:type
           rdf:resource="http://purl.org/dc/dcmitype/StillImage" /><dc:title></dc:title></cc:Work></rdf:RDF></metadata><defs
     id="defs47" /><sodipodi:namedview
     pagecolor="#ffffff"
     bordercolor="#666666"
     borderopacity="1"
     objecttolerance="10"
     gridtolerance="10"
     guidetolerance="10"
     inkscape:pageopacity="0"
     inkscape:pageshadow="2"
     inkscape:window-width="1547"
     inkscape:window-height="876"
     id="namedview45"
     showgrid="false"
     inkscape:zoom="3.9616412"
     inkscape:cx="98.507093"
     inkscape:cy="86.149956"
     inkscape:window-x="53"
     inkscape:window-y="24"
     inkscape:window-maximized="1"
     inkscape:current-layer="Capa_1" /><g
     id="g4875"
     transform="matrix(0.99101135,0,0,0.99101135,0.75726185,0.75726191)"><path
       style="fill:#005500;stroke:none"
       d="m 168.4925,154.223 c 0,7.881 -6.388,14.27 -14.27,14.27 l -139.953,0 c -7.8819998,0 -14.2689996,-6.39 -14.2689996,-14.27 l 0,-139.952002 c 0,-7.882 6.3869998,-14.271 14.2689996,-14.271 l 139.952,0 c 7.883,0 14.27,6.389 14.27,14.271 l 0,139.952002 z"
       id="path5"
       inkscape:connector-curvature="0" /><path
       style="fill:#ffe6d5"
       d="m 103.50296,136.95534 c 5.32137,-1.78969 10.41888,-4.4149 15.08946,-7.88297 23.79327,10.59014 41.42476,-13.44779 41.42476,-13.44779 -14.57935,7.16979 -23.52782,1.44595 -27.24422,-2.08328 3.01667,-4.94338 5.18559,-10.25619 6.4933,-15.736592 25.03615,-7.18202 23.08987,-36.92911 23.08987,-36.92911 -6.55813,14.86682 -17.09812,16.2308 -22.21153,15.91764 -0.84531,-5.58806 -2.56405,-11.06724 -5.14155,-16.22958 14.56833,-21.59255 -6.04802,-43.1276 -6.04802,-43.1276 4.53479,15.61303 -2.67047,23.42995 -6.78811,26.47231 -4.38555,-3.8632 -9.23718,-6.90433 -14.3616,-9.12708 -2.72063,-25.90959 -32.356401,-29.15624 -32.356401,-29.15624 13.511398,9.05001 13.013513,19.67441 11.814674,24.64959 -5.683472,-0.12967 -11.385294,0.59697 -16.8816,2.22641 -18.736131,-18.08411 -43.515385,-1.5279 -43.515385,-1.5279 16.154958,-1.753 22.604219,6.69269 24.890575,11.27886 -1.560937,1.25144 -3.076611,2.59463 -4.522557,4.0418 -2.65457,2.65335 -4.977625,5.50976 -6.970388,8.52154 -25.976869,-1.81049 -34.3198051,26.8026 -34.3198051,26.8026 11.2458371,-11.7217 21.6121191,-9.40354 26.3120541,-7.3594 -1.120547,5.60029 -1.349305,11.33881 -0.70707,16.99904 -21.088545,15.309652 -9.078142,42.606462 -9.078142,42.606462 1.081401,-16.20756 10.511855,-21.09588 15.422199,-22.55162 2.447832,4.47485 5.550132,8.68424 9.338706,12.47282 0.344972,0.34497 0.700953,0.66547 1.049595,0.99944 -6.317144,25.2857 20.434077,38.48026 20.434077,38.48026 -9.59193,-13.11015 -5.51221,-22.91494 -2.682707,-27.18794 5.350734,2.08696 10.963255,3.30414 16.621037,3.64422 11.414654,23.42261 40.382498,16.33846 40.382498,16.33846 -15.77451,-3.87788 -18.95143,-14.01051 -19.53372,-19.10435 z"
       id="path11"
       inkscape:connector-curvature="0" /><path
       style="fill:#c8ab37"
       d="m 117.28838,116.34633 c -17.29141,17.29386 -45.328325,17.29386 -62.620956,0 -17.290185,-17.288952 -17.290185,-45.325872 0.0024,-62.619722 17.290184,-17.29019 45.327096,-17.29019 62.616056,0 17.29385,17.29385 17.29385,45.33077 0.002,62.619722 z"
       id="path13"
       inkscape:connector-curvature="0" /><g
       transform="translate(2.0188658,24.232388)"
       id="g15" /><g
       transform="translate(2.0188658,24.232388)"
       id="g17" /><g
       transform="translate(2.0188658,24.232388)"
       id="g19" /><g
       transform="translate(2.0188658,24.232388)"
       id="g21" /><g
       transform="translate(2.0188658,24.232388)"
       id="g23" /><g
       transform="translate(2.0188658,24.232388)"
       id="g25" /><g
       transform="translate(2.0188658,24.232388)"
       id="g27" /><g
       transform="translate(2.0188658,24.232388)"
       id="g29" /><g
       transform="translate(2.0188658,24.232388)"
       id="g31" /><g
       transform="translate(2.0188658,24.232388)"
       id="g33" /><g
       transform="translate(2.0188658,24.232388)"
       id="g35" /><g
       transform="translate(2.0188658,24.232388)"
       id="g37" /><g
       transform="translate(2.0188658,24.232388)"
       id="g39" /><g
       transform="translate(2.0188658,24.232388)"
       id="g41" /><g
       transform="translate(2.0188658,24.232388)"
       id="g43" /><path
       sodipodi:nodetypes="cccsccccsccccccccccscscscccccccccccccccc"
       style="fill:#ffe680;fill-opacity:1"
       inkscape:connector-curvature="0"
       d="m 125.61274,61.370722 c -11.02548,-2.344335 -21.73471,-2.138799 -34.723531,0.665697 l -0.26908,0.0581 c -1.513171,0.327818 -3.502896,0.719639 -4.793423,0.719639 -1.312252,0 -3.280253,-0.391994 -4.793424,-0.719639 l -0.26908,-0.0581 c -12.988999,-2.804496 -23.697851,-3.00986 -34.723344,-0.665697 -0.573545,0.121934 -0.94805,0.632742 -0.859478,1.171299 l 0.787948,4.781291 c 0.05111,0.310126 0.250541,0.582441 0.542842,0.741146 0.29211,0.158532 0.646198,0.186458 0.963029,0.07597 0.447526,-0.155583 0.801614,-0.156624 1.052717,-0.0027 0.297542,0.182814 0.502773,0.601 0.522617,1.065496 0.254287,5.912522 1.497631,9.923872 3.912599,12.624122 2.533497,2.83294 6.418756,4.213071 11.877857,4.218795 l 0.02357,0 c 10.856965,-1.74e-4 15.123465,-7.215469 17.9472,-11.991209 0.392477,-0.663615 0.763047,-1.290285 1.120885,-1.84931 0.01389,-0.02168 0.02695,-0.04405 0.03914,-0.06677 0.628035,-1.167138 1.341088,-1.582026 1.804529,-1.582026 0.0043,0 0.0087,1.73e-4 0.01274,1.73e-4 0.0067,1.73e-4 0.03092,3.46e-4 0.03761,3.46e-4 0.0067,0 0.03092,-1.73e-4 0.03766,-3.46e-4 0.0043,0 0.0087,-1.73e-4 0.01274,-1.73e-4 0.463447,0 1.176494,0.414888 1.804534,1.582026 0.01219,0.02272 0.02525,0.0451 0.03913,0.06677 0.357832,0.559025 0.728592,1.185695 1.120878,1.84931 2.823925,4.775912 7.088739,11.992076 17.947395,11.991209 l 0.0235,0 c 5.45872,-0.0058 9.34398,-1.385855 11.87767,-4.218795 2.41478,-2.70025 3.65813,-6.7116 3.91259,-12.624122 0.02,-0.464496 0.22508,-0.882682 0.52262,-1.065496 0.2511,-0.154197 0.6052,-0.153156 1.05272,0.0027 0.3172,0.110488 0.6711,0.08257 0.96303,-0.07597 0.2925,-0.158533 0.49171,-0.430847 0.54283,-0.741146 l 0.78796,-4.781291 c 0.089,-0.538557 -0.28575,-1.049365 -0.85928,-1.171299 z m -18.80238,22.594132 c -17.737174,62.101996 -8.868588,31.050996 0,0 z"
       id="path3641-6" /><path
       style="fill:#005500;stroke:none"
       inkscape:connector-curvature="0"
       d="m 75.491235,65.905158 c -4.034498,-1.037918 -8.013946,-1.54248 -12.165472,-1.54248 -2.854448,0 -5.814131,0.250635 -8.796841,0.745136 -0.47337,0.07857 -0.840379,0.427378 -0.912845,0.867765 -0.05487,0.333715 -1.29521,8.224768 2.980278,12.83417 1.959766,2.112952 4.729948,3.184171 8.232466,3.184171 3.76e-4,0 0.01611,0 0.0165,0 8.762573,0 11.998819,-6.786183 13.220441,-9.359642 0.169275,-0.334063 1.284542,-2.677356 0.305592,-4.64149 -0.357457,-0.715996 -1.148594,-1.660079 -2.880096,-2.08763 z m -17.522893,2.040105 c -0.06928,0.956744 -0.08989,1.857116 -0.06105,2.676315 0.02025,0.574636 -0.466251,1.055436 -1.086425,1.073995 -0.01235,3.46e-4 -0.02492,5.04e-4 -0.03729,5.04e-4 -0.603694,0 -1.10253,-0.443856 -1.12219,-1.006871 -0.03108,-0.887883 -0.0094,-1.858157 0.06516,-2.883412 0.04157,-0.573422 0.576545,-1.008432 1.196339,-0.968711 0.618679,0.0385 1.086991,0.534742 1.045424,1.108165 z"
       id="path3639" /><path
       style="fill:#005500;fill-opacity:1;stroke:none"
       inkscape:connector-curvature="0"
       d="m 125.52811,61.423588 c -11.0255,-2.344333 -21.73472,-2.138797 -34.723534,0.665696 l -0.269081,0.0581 c -1.51317,0.327819 -3.502895,0.71964 -4.793425,0.71964 -1.31225,0 -3.280251,-0.391995 -4.793421,-0.71964 l -0.269081,-0.0581 c -12.988999,-2.804493 -23.69785,-3.009858 -34.723344,-0.665696 -0.573545,0.121935 -0.948049,0.632741 -0.859477,1.171301 l 0.787946,4.781288 c 0.05111,0.310126 0.250544,0.582441 0.542843,0.741147 0.292111,0.158532 0.646199,0.186457 0.96303,0.07597 0.447526,-0.155585 0.801615,-0.156626 1.052717,-0.0027 0.297542,0.182816 0.502772,0.601001 0.522617,1.065496 0.254287,5.912522 1.49763,9.923874 3.912599,12.624124 2.533496,2.832938 6.418755,4.21307 11.877856,4.218794 0.0078,0 0.01552,0 0.02357,0 10.856965,-1.73e-4 15.123465,-7.215469 17.947199,-11.991208 0.392478,-0.663615 0.763046,-1.290286 1.120885,-1.849311 0.01388,-0.02168 0.02695,-0.04405 0.03913,-0.06678 0.628035,-1.167137 1.341088,-1.582027 1.80453,-1.582027 0.0043,0 0.0087,1.74e-4 0.01274,1.74e-4 0.0067,1.74e-4 0.03092,3.48e-4 0.03761,3.48e-4 0.0067,0 0.03092,-1.74e-4 0.03766,-3.48e-4 0.0043,0 0.0087,-1.74e-4 0.01274,-1.74e-4 0.463446,0 1.176493,0.41489 1.804534,1.582027 0.01219,0.02272 0.02525,0.0451 0.03913,0.06678 0.357833,0.559025 0.728593,1.185696 1.120878,1.849311 2.823925,4.775913 7.088739,11.992076 17.947399,11.991208 0.008,0 0.0163,0 0.0235,0 5.45873,-0.0058 9.34398,-1.385856 11.87768,-4.218794 2.41477,-2.70025 3.65811,-6.711602 3.91258,-12.624124 0.0199,-0.464495 0.22508,-0.88268 0.52263,-1.065496 0.2511,-0.154195 0.6052,-0.153154 1.05271,0.0027 0.3172,0.110485 0.67111,0.08257 0.96304,-0.07597 0.29248,-0.158532 0.49171,-0.430847 0.54283,-0.741147 l 0.78796,-4.781288 c 0.089,-0.53856 -0.28576,-1.049366 -0.85931,-1.171301 z m -1.97437,4.573672 c -0.63722,-0.01283 -1.23941,0.142401 -1.75492,0.458945 -0.90629,0.556771 -1.47665,1.572487 -1.52571,2.717076 -0.23387,5.432589 -1.31356,9.048476 -3.39784,11.379281 -2.10976,2.359076 -5.33477,3.46013 -10.14954,3.465159 -0.008,0 -0.0142,0 -0.0216,0 -4.21127,0 -7.635703,-1.192114 -10.467868,-3.644159 -2.48421,-2.150765 -4.090819,-4.868014 -5.508303,-7.265596 -0.394539,-0.66743 -0.767726,-1.298264 -1.138481,-1.879144 -1.342399,-2.466961 -3.134387,-2.709964 -3.842945,-2.699903 -5.45e-4,0 -0.001,0 -0.0016,0 -0.707804,-0.0092 -2.504844,0.228257 -3.850053,2.699903 -0.370754,0.58088 -0.743946,1.211714 -1.13848,1.879144 -1.41749,2.397409 -3.024099,5.114658 -5.508349,7.265596 -2.836841,2.456208 -6.271579,3.648496 -10.489395,3.644159 -4.814955,-0.0051 -8.040157,-1.106256 -10.149719,-3.465159 -2.084288,-2.330805 -3.163784,-5.946519 -3.397846,-11.379281 -0.04926,-1.144589 -0.619614,-2.160305 -1.525716,-2.717076 -0.515503,-0.316718 -1.116204,-0.472301 -1.754911,-0.458945 l -0.453881,-2.754194 c 10.320496,-2.044961 20.455981,-1.768831 32.692988,0.873141 l 0.267578,0.05793 c 1.620652,0.350886 4.008845,0.764735 5.304245,0.764735 1.367116,0 3.685085,-0.413849 5.305736,-0.764735 l 0.267585,-0.05793 c 12.236995,-2.641972 22.372105,-2.918102 32.692975,-0.873141 l -0.45409,2.754194 z"
       id="path3641" /><path
       style="fill:#005500;stroke:none"
       inkscape:connector-curvature="0"
       d="m 96.004329,65.902383 c -1.742737,0.4305 -2.533874,1.374409 -2.891146,2.090579 -0.978945,1.96396 0.136317,4.307427 0.305592,4.64149 1.221436,2.573458 4.457873,9.359643 13.220435,9.359643 l 0.0154,0 c 3.50364,0 6.27382,-1.071394 8.23358,-3.184174 4.27549,-4.609401 3.03516,-12.500454 2.98029,-12.834168 -0.0724,-0.440388 -0.43948,-0.789194 -0.91286,-0.867765 -2.98289,-0.494503 -5.94238,-0.745136 -8.79684,-0.745136 -4.15151,-1.74e-4 -8.13097,0.504215 -12.154417,1.539531 z m 10.634881,15.050498 0,0 0,3.48e-4 0,-3.48e-4 z"
       id="path3643" /><g
       transform="matrix(0.34402674,0,0,0.34402674,221.11104,44.220176)"
       id="g3645" /><g
       transform="matrix(0.34402674,0,0,0.34402674,221.11104,44.220176)"
       id="g3647" /><g
       transform="matrix(0.34402674,0,0,0.34402674,221.11104,44.220176)"
       id="g3649" /><g
       transform="matrix(0.34402674,0,0,0.34402674,221.11104,44.220176)"
       id="g3651" /><g
       transform="matrix(0.34402674,0,0,0.34402674,221.11104,44.220176)"
       id="g3653" /><g
       transform="matrix(0.34402674,0,0,0.34402674,221.11104,44.220176)"
       id="g3655" /><g
       transform="matrix(0.34402674,0,0,0.34402674,221.11104,44.220176)"
       id="g3657" /><g
       transform="matrix(0.34402674,0,0,0.34402674,221.11104,44.220176)"
       id="g3659" /><g
       transform="matrix(0.34402674,0,0,0.34402674,221.11104,44.220176)"
       id="g3661" /><g
       transform="matrix(0.34402674,0,0,0.34402674,221.11104,44.220176)"
       id="g3663" /><g
       transform="matrix(0.34402674,0,0,0.34402674,221.11104,44.220176)"
       id="g3665" /><g
       transform="matrix(0.34402674,0,0,0.34402674,221.11104,44.220176)"
       id="g3667" /><g
       transform="matrix(0.34402674,0,0,0.34402674,221.11104,44.220176)"
       id="g3669" /><g
       transform="matrix(0.34402674,0,0,0.34402674,221.11104,44.220176)"
       id="g3671" /><g
       transform="matrix(0.34402674,0,0,0.34402674,221.11104,44.220176)"
       id="g3673" /><g
       transform="translate(135.2758,31.154823)"
       id="g4639" /><g
       transform="translate(135.2758,31.154823)"
       id="g4641" /><g
       transform="translate(135.2758,31.154823)"
       id="g4643" /><g
       transform="translate(135.2758,31.154823)"
       id="g4645" /><g
       transform="translate(135.2758,31.154823)"
       id="g4647" /><g
       transform="translate(135.2758,31.154823)"
       id="g4649" /><g
       transform="translate(135.2758,31.154823)"
       id="g4651" /><g
       transform="translate(135.2758,31.154823)"
       id="g4653" /><g
       transform="translate(135.2758,31.154823)"
       id="g4655" /><g
       transform="translate(135.2758,31.154823)"
       id="g4657" /><g
       transform="translate(135.2758,31.154823)"
       id="g4659" /><g
       transform="translate(135.2758,31.154823)"
       id="g4661" /><g
       transform="translate(135.2758,31.154823)"
       id="g4663" /><g
       transform="translate(135.2758,31.154823)"
       id="g4665" /><g
       transform="translate(135.2758,31.154823)"
       id="g4667" /><path
       sodipodi:nodetypes="cc"
       inkscape:connector-curvature="0"
       id="path4732"
       d="m 69.672981,92.443577 c 4.573293,16.135433 26.142855,16.505633 31.330469,0"
       style="fill:#005500;fill-rule:evenodd;stroke:none;stroke-width:0.65252727px;stroke-linecap:butt;stroke-linejoin:miter;stroke-opacity:1" /></g></svg>